<mxfile host="app.diagrams.net" modified="2024-05-14T20:43:19.199Z" agent="Mozilla/5.0 (X11; Linux x86_64) AppleWebKit/537.36 (KHTML, like Gecko) Chrome/117.0.0.0 Safari/537.36" version="24.3.1" etag="fBWNImYO9hNFD9IsAjaX" type="github">
  <diagram name="PÃ¡gina-1" id="qqroPna_3yze2mzzIeEv">
    <mxGraphModel>
      <root>
        <mxCell id="0" />
        <mxCell id="1" parent="0" />
      </root>
    </mxGraphModel>
  </diagram>
</mxfile>
